<svg width="67" height="112" viewBox="0 0 67 112" fill="none" xmlns="http://www.w3.org/2000/svg">
<g clip-path="url(#clip0_3554_855)">
<path d="M57.487 64.8059L62.7706 5H4L4.06905 5.77608L9.27524 64.8143L9.31943 65.3056L33.163 72H33.5386L57.4373 65.3L57.4815 64.8087L57.487 64.8059ZM33.4364 18.0622H50.5132L49.9995 24.0922L33.1519 31.6632L33.4336 33.0255H49.2428L47.4227 54.1054L33.3756 58.0417L19.3341 54.111L18.4503 44.0163H24.231L24.695 49.1335L24.7391 49.6304L33.2596 51.9195H33.627L42.0535 49.5522L42.095 49.0581L42.8904 39.6055L42.9539 38.835H17.967L17.4422 32.7687L34.867 25.2284L34.5909 23.8605H16.6937L16.1828 18.0538H33.417L33.4364 18.0622Z" fill="#E6E6E6"/>
</g>
<defs>
<clipPath id="clip0_3554_855">
<rect width="58" height="67" fill="white" transform="translate(4 5)"/>
</clipPath>
</defs>
</svg>
