<svg width="67" height="112" viewBox="0 0 81 112" fill="none" xmlns="http://www.w3.org/2000/svg">
<path d="M69.615 49.176C62.208 59.043 46.392 55.713 36.249 56.19C36.249 56.19 34.452 56.292 32.646 56.589C32.646 56.589 33.33 56.298 34.203 55.995C41.325 53.532 44.691 53.037 49.02 50.814C57.15 46.65 65.244 37.575 66.891 28.149C63.795 37.215 54.381 45.018 45.81 48.186C39.945 50.352 29.334 52.458 29.331 52.458C29.1868 52.3842 29.0438 52.3082 28.902 52.23C21.687 48.72 21.477 33.09 34.584 28.053C40.332 25.845 45.825 27.057 52.038 25.578C58.662 24.003 66.336 19.038 69.453 12.546C72.948 22.92 77.148 39.144 69.615 49.176ZM69.741 9.33603C68.903 11.3453 67.8306 13.2485 66.546 15.006C63.7535 12.128 60.4115 9.84008 56.7181 8.27809C53.0246 6.71611 49.0551 5.91185 45.045 5.91303C28.476 5.91303 15 19.389 15 35.955C14.9981 40.0873 15.8513 44.1753 17.506 47.9618C19.1608 51.7483 21.5812 55.1514 24.615 57.957L25.275 58.539C24.7939 58.0572 24.5239 57.404 24.5244 56.7231C24.5248 56.0422 24.7956 55.3893 25.2773 54.9081C25.7589 54.4268 26.412 54.1565 27.0929 54.1567C27.7738 54.1568 28.4267 54.4274 28.9082 54.9088C29.3897 55.3903 29.6602 56.0433 29.6604 56.7241C29.6605 57.405 29.3902 58.0581 28.909 58.5398C28.4277 59.0214 27.7748 59.2923 27.0939 59.2927C26.4131 59.2931 25.7599 59.0231 25.278 58.542L25.725 58.938C31.1262 63.5044 37.9722 66.0068 45.045 66C60.879 66 73.884 53.676 74.997 38.124C75.819 30.507 73.569 20.835 69.741 9.33603Z" fill="#E6E6E6"/>
</svg>
