<svg width="67" height="112" viewBox="0 0 67 112" fill="none" xmlns="http://www.w3.org/2000/svg">
<path d="M33.858 39.1531C32.8509 39.6158 31.7475 40.2188 29.5386 41.4311C28.7011 41.9022 27.8259 42.3733 27.0115 42.8172C26.9549 42.7607 26.8963 42.6895 26.8398 42.6308C22.4701 37.9618 14.3882 34.6641 14.7316 28.3933C14.8593 26.1091 15.6445 20.1126 30.2526 12.8305C42.2749 6.90519 51.8412 8.54669 53.4932 12.1877C55.8675 17.3781 48.3656 27.0366 35.9497 28.4373C34.5755 28.716 33.1563 28.6824 31.7969 28.3388C30.4375 27.9953 29.1727 27.3506 28.096 26.4524C27.4386 25.7385 27.3402 25.6966 27.0973 25.839C26.6974 26.0483 26.9549 26.6953 27.0973 27.0659C27.5709 27.9234 28.2116 28.6772 28.9816 29.2828C29.7515 29.8884 30.6351 30.3335 31.58 30.5918C36.466 31.6479 41.5603 31.1433 46.1441 29.1492C53.6691 26.2368 59.5441 18.1403 57.8231 11.3523C56.0957 4.47016 44.6722 2.20054 33.8643 6.04047C27.0958 8.32139 20.8423 11.912 15.4602 16.6076C9.50562 22.177 8.56343 27.0178 8.94868 29.0445C10.3347 36.2407 20.2549 40.9244 24.2331 44.3938C24.0237 44.5089 23.8478 44.6032 23.6908 44.6932C21.7059 45.6793 14.1391 49.6344 12.2526 53.8178C10.1107 58.558 12.596 61.9562 14.2375 62.4126C16.7112 63.0051 19.3083 62.8104 21.6659 61.8554C24.0236 60.9005 26.0242 59.2331 27.3883 57.0861C28.5468 55.3057 29.2581 53.2719 29.4619 51.1577C29.6656 49.0434 29.3558 46.9112 28.5587 44.9423C29.029 44.5672 29.5306 44.2331 30.0579 43.9436C31.0712 43.3448 32.0365 42.7544 32.8928 42.2979C35.8248 40.9246 39.0246 40.2174 42.2623 40.2272C49.0586 41.027 50.4007 45.2669 50.1432 47.0528C50.0227 47.6865 49.7679 48.287 49.3959 48.8139C49.0239 49.3408 48.5434 49.782 47.9866 50.1076C47.5156 50.407 47.3585 50.5075 47.4004 50.7211C47.4569 51.0352 47.6851 51.0205 48.085 50.964C49.1062 50.6413 50.0058 50.0172 50.6657 49.1738C51.3256 48.3304 51.715 47.3071 51.7826 46.2384C51.992 42.0509 47.9992 37.4572 40.9307 37.4991C38.8142 37.5027 36.7188 37.9202 34.7625 38.7281C34.4485 38.8579 34.1435 38.9975 33.8476 39.1469L33.858 39.1531ZM23.7557 55.566C21.4986 58.022 18.358 58.9495 17.0012 58.1644C15.5356 57.3269 16.1156 53.6942 18.8856 51.0959C20.5262 49.6177 22.2994 48.2938 24.1828 47.1408C24.5115 46.9314 24.9973 46.655 25.5814 46.3033L25.7385 46.2174L26.0818 46.0081C26.5759 47.6644 26.6208 49.4224 26.2121 51.1018C25.8034 52.7813 24.9556 54.3219 23.7557 55.566Z" fill="#E6E6E6"/>
</svg>
