<svg width="65" height="112" viewBox="0 0 67 112" fill="none" xmlns="http://www.w3.org/2000/svg">
<path d="M9 5V68H72V5H9ZM43.2844 54.1344C43.2844 60.2656 39.6844 63.0641 34.4391 63.0641C29.7 63.0641 26.9578 60.6172 25.5516 57.65L30.375 54.7391C31.3031 56.3844 32.1469 57.7766 34.1859 57.7766C36.1266 57.7766 37.3641 57.0172 37.3641 54.05V33.9266H43.2844V54.1344ZM57.2906 63.0641C51.7922 63.0641 48.2344 60.4484 46.5047 57.0172L51.3281 54.2328C52.5938 56.3 54.2531 57.8328 57.1641 57.8328C59.6109 57.8328 61.1859 56.6094 61.1859 54.9078C61.1859 52.8828 59.5828 52.1656 56.8687 50.9703L55.3922 50.3375C51.1172 48.5234 48.2906 46.2313 48.2906 41.4078C48.2906 36.9641 51.6797 33.5891 56.9531 33.5891C60.7219 33.5891 63.4219 34.8969 65.3625 38.3281L60.75 41.2812C59.7375 39.4672 58.6406 38.75 56.9391 38.75C55.2094 38.75 54.1125 39.8469 54.1125 41.2812C54.1125 43.0531 55.2094 43.7703 57.7547 44.8813L59.2313 45.5141C64.2656 47.6656 67.0922 49.8734 67.0922 54.8234C67.0922 60.1391 62.9016 63.0641 57.2906 63.0641Z" fill="#E6E6E6"/>
</svg>
