<svg width="67" height="112" viewBox="0 0 72 112" fill="none" xmlns="http://www.w3.org/2000/svg">
<path d="M26.5567 55.6763C26.5567 55.6763 23.8027 57.2805 28.512 57.8183C34.218 58.4753 37.1362 58.383 43.4182 57.186C43.4182 57.186 45.0675 58.23 47.3782 59.1323C33.282 65.169 15.48 58.77 26.5545 55.6763H26.5567ZM24.831 47.8013C24.831 47.8013 21.7372 50.085 26.4487 50.5643C32.5575 51.1965 37.359 51.2573 45.6907 49.653C45.6907 49.653 46.8405 50.814 48.6585 51.4553C31.6192 56.4345 12.6337 51.8423 24.8332 47.8013H24.831ZM39.3502 34.4318C42.8175 38.4278 38.4345 42.0255 38.4345 42.0255C38.4345 42.0255 47.2477 37.4648 43.2045 31.7723C39.4222 26.451 36.5152 23.8163 52.2158 14.7083C52.2158 14.7083 27.5715 20.862 39.348 34.434L39.3502 34.4318ZM57.9847 61.5128C57.9847 61.5128 60.0255 63.1868 55.746 64.4895C47.6122 66.9488 21.8902 67.6868 14.742 64.5818C12.177 63.468 16.992 61.911 18.504 61.5938C20.0857 61.2428 20.988 61.3148 20.988 61.3148C18.1282 59.2988 2.51999 65.2635 13.0567 66.9735C41.8027 71.6378 65.448 64.8765 57.9847 61.5128ZM27.8797 39.6338C27.8797 39.6338 14.7915 42.7388 23.238 43.8638C26.8132 44.343 33.9277 44.2395 40.5607 43.677C45.972 43.218 51.4125 42.246 51.4125 42.246C51.4125 42.246 49.5022 43.065 48.1185 44.0168C34.8277 47.5088 9.15524 45.8798 16.5487 42.3068C22.7947 39.294 27.8797 39.6338 27.8797 39.6338ZM51.3517 52.758C64.8518 45.7268 58.6058 38.988 54.2587 39.9038C53.19 40.113 52.7108 40.3155 52.7108 40.3155C52.7108 40.3155 53.0977 39.6923 53.8605 39.4245C62.4847 36.3893 69.1178 48.3638 51.0817 53.1113C51.0817 53.1 51.2955 52.9245 51.3517 52.7603V52.758ZM43.2067 0C43.2067 0 50.6857 7.47675 36.1057 18.9833C24.4237 28.2173 33.444 33.48 36.1057 39.492C29.286 33.3383 24.282 27.927 27.6345 22.887C32.5665 15.4688 46.2195 11.8823 43.2067 0ZM29.2027 71.7773C42.165 72.5963 62.073 71.3093 62.5568 65.1803C62.5568 65.1803 61.641 67.5 51.831 69.3495C40.77 71.4353 27.117 71.1878 19.0192 69.8535C19.0192 69.8535 20.6842 71.2238 29.2005 71.7773H29.2027Z" fill="#E6E6E6"/>
</svg>
